<?xml version="1.0" standalone="no"?>
<!DOCTYPE svg PUBLIC "-//W3C//DTD SVG 20010904//EN"
 "http://www.w3.org/TR/2001/REC-SVG-20010904/DTD/svg10.dtd">
<svg version="1.0" xmlns="http://www.w3.org/2000/svg"
 width="512.000000pt" height="512.000000pt" viewBox="0 0 512.000000 512.000000"
 preserveAspectRatio="xMidYMid meet">
<metadata>
Created by potrace 1.14, written by Peter Selinger 2001-2017
</metadata>
<g transform="translate(0.000000,512.000000) scale(0.100000,-0.100000)"
fill="#000000" stroke="none">
<path d="M255 4949 c-36 -11 -55 -26 -78 -59 -16 -23 -17 -174 -17 -2328 0
-2552 -6 -2345 64 -2395 l31 -22 2305 -3 c2235 -2 2306 -2 2340 17 19 10 44
34 55 52 20 34 20 55 23 2284 2 1238 0 2273 -3 2302 -8 67 -39 112 -95 141
l-44 22 -2276 -1 c-1356 0 -2287 -5 -2305 -10z m1235 -889 l0 -160 -75 0
c-146 0 -220 -32 -247 -108 -10 -29 -12 -130 -10 -462 4 -453 -1 -518 -46
-607 -29 -56 -100 -117 -160 -137 -29 -10 -54 -21 -57 -26 -6 -9 33 -37 96
-66 65 -30 114 -85 141 -157 23 -62 23 -66 23 -528 l0 -465 25 -50 c34 -67 83
-90 210 -101 l95 -8 3 -157 3 -158 -161 0 c-253 0 -351 33 -426 144 -86 128
-104 287 -79 713 9 168 14 331 11 362 -17 141 -111 230 -278 264 l-63 13 -3
168 c-1 106 1 173 8 181 6 7 38 18 73 25 163 31 249 115 263 258 3 31 -2 188
-11 347 -19 317 -15 453 16 572 33 132 86 205 182 255 75 38 125 46 300 47
l167 1 0 -160z m2555 146 c61 -16 122 -46 164 -82 114 -95 149 -323 117 -753
-27 -365 -20 -437 50 -519 49 -57 105 -88 199 -110 l80 -18 3 -180 2 -181 -58
-6 c-138 -15 -247 -88 -276 -188 -20 -66 -20 -143 0 -433 41 -585 -30 -788
-297 -851 -42 -10 -116 -15 -216 -15 l-153 0 0 149 c0 107 4 151 13 158 6 6
52 14 101 17 136 11 185 39 207 121 8 27 11 175 10 455 -2 334 1 430 13 487
26 126 75 194 175 242 77 37 77 54 -2 89 -75 34 -110 68 -143 137 -39 85 -45
162 -44 599 2 411 -1 451 -34 501 -26 40 -98 66 -199 74 l-92 6 -3 145 c-1 79
0 150 2 157 7 18 312 18 381 -1z m-724 -806 c18 -10 19 -24 19 -250 l0 -240
-92 0 c-51 0 -99 -4 -107 -9 -11 -7 -15 -83 -19 -413 -3 -223 -2 -421 2 -441
10 -53 64 -107 108 -107 62 0 64 -6 87 -230 12 -113 21 -212 21 -221 0 -29
-95 -62 -191 -67 -228 -12 -344 106 -411 413 -10 45 -13 185 -13 545 0 377 -3
490 -13 508 -12 21 -19 22 -120 22 -59 0 -112 -4 -118 -8 -7 -5 -15 -167 -23
-497 -12 -508 -29 -967 -37 -974 -6 -6 -394 28 -407 36 -6 4 -7 38 -3 92 35
457 56 885 56 1146 0 209 3 203 -140 207 l-105 3 -3 221 c-3 260 -8 247 113
262 113 13 1371 15 1396 2z"/>
</g>
</svg>
